<svg xmlns="http://www.w3.org/2000/svg" viewBox="0 0 64 64" width="64" height="64">
  <!-- Background circle -->
  <circle cx="32" cy="32" r="32" fill="#1a1a2e" />
  
  <!-- Film reel elements -->
  <circle cx="32" cy="32" r="25" fill="none" stroke="#e94560" stroke-width="2" />
  
  <!-- Film sprocket holes -->
  <circle cx="32" cy="7" r="2.5" fill="#e94560" />
  <circle cx="32" cy="57" r="2.5" fill="#e94560" />
  <circle cx="7" cy="32" r="2.5" fill="#e94560" />
  <circle cx="57" cy="32" r="2.5" fill="#e94560" />
  <circle cx="14" cy="14" r="2.5" fill="#e94560" />
  <circle cx="50" cy="14" r="2.5" fill="#e94560" />
  <circle cx="14" cy="50" r="2.5" fill="#e94560" />
  <circle cx="50" cy="50" r="2.5" fill="#e94560" />
  
  <!-- Central film icon -->
  <rect x="26" y="26" width="12" height="12" rx="2" fill="#e94560" />
  <rect x="28" y="28" width="8" height="8" rx="1" fill="#1a1a2e" />
  
  <!-- Heart icon (for match concept) -->
  <path d="M32 38 L29 35 Q27 33 27 31 Q27 29 29 29 Q31 29 32 31 Q33 29 35 29 Q37 29 37 31 Q37 33 35 35 Z" fill="#ffffff" />
</svg>